<svg fill="none" xmlns="http://www.w3.org/2000/svg">
    <symbol viewBox="0 0 20 20" id="icon-search">  
        <path d="M19.635 17.871L15.7637 13.9984C18.6604 10.1278 17.8706 4.64195 13.9996 1.74552C10.1286 -1.15092 4.64234 -0.361157 1.74566 3.50949C-1.15102 7.38014 -0.361187 12.866 3.50979 15.7624C6.61927 18.0891 10.8901 18.0891 13.9996 15.7624L17.8725 19.635C18.3592 20.1217 19.1483 20.1217 19.635 19.635C20.1217 19.1483 20.1217 18.3593 19.635 17.8727L19.635 17.871ZM8.78697 15.015C5.34663 15.015 2.55772 12.2263 2.55772 8.78624C2.55772 5.34619 5.34663 2.55751 8.78697 2.55751C12.2273 2.55751 15.0162 5.34619 15.0162 8.78624C15.0126 12.2247 12.2258 15.0113 8.78697 15.015Z"/>
    </symbol>

    <symbol viewBox="0 0 16 20" id="icon-user">
        <path d="M8.00008 10.5261C9.05492 10.5261 10.0861 10.2174 10.9631 9.63908C11.8402 9.06077 12.5238 8.2388 12.9274 7.27711C13.3311 6.31541 13.4367 5.25719 13.2309 4.23627C13.0251 3.21534 12.5172 2.27756 11.7713 1.54151C11.0254 0.80546 10.0751 0.304205 9.04056 0.10113C8.006 -0.101945 6.93364 0.0022804 5.9591 0.400627C4.98456 0.798973 4.15161 1.47355 3.56558 2.33905C2.97954 3.20455 2.66675 4.2221 2.66675 5.26303C2.66816 6.65845 3.23052 7.99631 4.2304 8.98302C5.23029 9.96973 6.58603 10.5247 8.00008 10.5261ZM8.00008 1.75435C8.7033 1.75435 9.39073 1.96013 9.97544 2.34567C10.5602 2.73121 11.0159 3.27919 11.285 3.92032C11.5541 4.56145 11.6245 5.26693 11.4873 5.94754C11.3501 6.62816 11.0115 7.25335 10.5142 7.74405C10.017 8.23475 9.38345 8.56892 8.69374 8.7043C8.00403 8.83969 7.28912 8.7702 6.63943 8.50464C5.98974 8.23907 5.43443 7.78936 5.04375 7.21235C4.65306 6.63535 4.44453 5.95699 4.44453 5.26303C4.44453 4.33247 4.81913 3.44002 5.48592 2.78202C6.15272 2.12401 7.05709 1.75435 8.00008 1.75435Z"/>
<path d="M8 11.2275C5.87899 11.2299 3.84553 12.0624 2.34574 13.5424C0.845963 15.0224 0.00235276 17.029 0 19.1221C0 19.3547 0.0936505 19.5778 0.260349 19.7423C0.427048 19.9068 0.653141 19.9993 0.888889 19.9993C1.12464 19.9993 1.35073 19.9068 1.51743 19.7423C1.68413 19.5778 1.77778 19.3547 1.77778 19.1221C1.77778 17.4936 2.43333 15.9318 3.60022 14.7803C4.76712 13.6288 6.34976 12.9819 8 12.9819C9.65024 12.9819 11.2329 13.6288 12.3998 14.7803C13.5667 15.9318 14.2222 17.4936 14.2222 19.1221C14.2222 19.3547 14.3159 19.5778 14.4826 19.7423C14.6493 19.9068 14.8754 19.9993 15.1111 19.9993C15.3469 19.9993 15.573 19.9068 15.7397 19.7423C15.9064 19.5778 16 19.3547 16 19.1221C15.9976 17.029 15.154 15.0224 13.6543 13.5424C12.1545 12.0624 10.121 11.2299 8 11.2275Z"/>
    </symbol>

    <symbol viewBox="0 0 20 20" id="icon-favorites">
    <path d="M14.5815 0C13.6435 0.0156446 12.726 0.296417 11.9215 0.813962C11.1171 1.33151 10.4543 2.0675 10 2.94761C9.54572 2.0675 8.8829 1.33151 8.07847 0.813962C7.27405 0.296417 6.35651 0.0156446 5.41852 0C3.92324 0.0696625 2.51444 0.771072 1.49991 1.95099C0.485388 3.13091 -0.0524034 4.69343 0.00403263 6.29717C0.00403263 12.3487 9.13035 19.3381 9.51853 19.6347L10 20L10.4815 19.6347C10.8696 19.3399 19.996 12.3487 19.996 6.29717C20.0524 4.69343 19.5146 3.13091 18.5001 1.95099C17.4856 0.771072 16.0768 0.0696625 14.5815 0ZM10 17.8009C7.29026 15.6304 1.67003 10.2979 1.67003 6.29717C1.61308 5.167 1.97521 4.05853 2.67742 3.21352C3.37964 2.36851 4.36497 1.85552 5.41852 1.78643C6.47206 1.85552 7.45739 2.36851 8.15961 3.21352C8.86182 4.05853 9.22395 5.167 9.167 6.29717H10.833C10.7761 5.167 11.1382 4.05853 11.8404 3.21352C12.5426 2.36851 13.5279 1.85552 14.5815 1.78643C15.635 1.85552 16.6204 2.36851 17.3226 3.21352C18.0248 4.05853 18.3869 5.167 18.33 6.29717C18.33 10.2997 12.7097 15.6304 10 17.8009Z"/>
    </symbol>

    <symbol viewBox="0 0 22 20" id="icon-orders">
        <path d="M21.5929 4.32602L13.7358 0.0952115C13.6198 0.0327508 13.4895 0 13.3571 0C13.2248 0 13.0945 0.0327508 12.9785 0.0952115L5.12136 4.32602C4.99817 4.39242 4.89545 4.48998 4.8239 4.60851C4.75235 4.72704 4.71461 4.86219 4.71461 4.99987C4.71461 5.13755 4.75235 5.2727 4.8239 5.39123C4.89545 5.50976 4.99817 5.60732 5.12136 5.67372L12.5714 9.68553V17.9297L10.1858 16.6456L9.42857 17.9932L12.9785 19.9046C13.0945 19.9672 13.2247 20 13.3571 20C13.4896 20 13.6198 19.9672 13.7358 19.9046L21.5929 15.6738C21.7162 15.6074 21.819 15.5099 21.8906 15.3914C21.9622 15.2728 22 15.1377 22 15V4.99987C22 4.86216 21.9622 4.72698 21.8906 4.60845C21.819 4.48992 21.7162 4.39238 21.5929 4.32602ZM13.3571 1.64723L19.5838 4.99987L13.3571 8.35251L7.13052 4.99987L13.3571 1.64723ZM20.4286 14.5451L14.1429 17.9298V9.68553L20.4286 6.30088V14.5451Z"/>
<path d="M0 9.99991H6.28572V8.46144H0V9.99991Z"/>
<path d="M1.57143 16.1538H7.85714V14.6153H1.57143V16.1538Z"/>
<path d="M3.14286 13.0769H9.42857V11.5384H3.14286V13.0769Z"/>
    </symbol>
    
    <symbol viewBox="0 0 22 20" id="icon-basket">
        <path d="M19.1816 6.66667C18.725 2.9225 15.2322 0 11 0C6.76782 0 3.27502 2.9225 2.8184 6.66667H0L1.7551 17.8542C1.94726 19.0775 3.11488 20 4.47284 20H17.5272C18.8842 20 20.0527 19.0775 20.2449 17.8542L22 6.66667H19.1816ZM11 1.66667C14.2201 1.66667 16.8857 3.845 17.3323 6.66667H4.66775C5.1143 3.845 7.77988 1.66667 11 1.66667ZM18.4322 17.6183C18.369 18.0258 17.9792 18.3333 17.5272 18.3333H4.47284C4.0208 18.3333 3.63098 18.0258 3.56784 17.6183L2.11106 8.33333H19.8889L18.4322 17.6183ZM11.9151 16.6667H10.0849V10H11.9151V16.6667ZM16.4904 16.6667H14.6603V10H16.4904V16.6667ZM7.33974 16.6667H5.50961V10H7.33974V16.6667Z"/>
    </symbol>

    <symbol viewBox="0 0 20 12" id="burger-menu">
        <rect width="20" height="2" rx="1"/>
        <rect y="5" width="16" height="2" rx="1"/>
        <rect y="10" width="12" height="2" rx="1"/>
    </symbol>
</svg>
