<svg xmlns="http://www.w3.org/2000/svg" width="1340" height="518" viewBox="0 0 1340 518" fill="none">
    <symbol width="1340" height="518" viewBox="0 0 1340 518" id="id">
            <path fill-rule="evenodd" clip-rule="evenodd" d="M1340 30C1340 13.4315 1326.57 0 1310 0H310C293.431 0 280 13.4315 280 30V43C280 59.5685 266.569 73 250 73H30C13.4315 73 0 86.4315 0 103V488C0 504.569 13.4314 518 30 518H1310C1326.57 518 1340 504.569 1340 488V73V30Z"/>
            <path fill-rule="evenodd" clip-rule="evenodd" d="M1340 30C1340 13.4315 1326.57 0 1310 0H310C293.431 0 280 13.4315 280 30V43C280 59.5685 266.569 73 250 73H30C13.4315 73 0 86.4315 0 103V488C0 504.569 13.4314 518 30 518H1310C1326.57 518 1340 504.569 1340 488V73V30Z" fill="white" fill-opacity="0.1"/>
            <path d="M310 1H1310V-1H310V1ZM281 43V30H279V43H281ZM30 74H250V72H30V74ZM1 488V103H-1V488H1ZM1310 517H30V519H1310V517ZM1339 73V488H1341V73H1339ZM1339 30V73H1341V30H1339ZM1310 519C1327.12 519 1341 505.121 1341 488H1339C1339 504.016 1326.02 517 1310 517V519ZM-1 488C-1 505.121 12.8791 519 30 519V517C13.9837 517 1 504.016 1 488H-1ZM30 72C12.8792 72 -1 85.8792 -1 103H1C1 86.9837 13.9837 74 30 74V72ZM279 43C279 59.0163 266.016 72 250 72V74C267.121 74 281 60.1208 281 43H279ZM1310 1C1326.02 1 1339 13.9837 1339 30H1341C1341 12.8792 1327.12 -1 1310 -1V1ZM310 -1C292.879 -1 279 12.8792 279 30H281C281 13.9837 293.984 1 310 1V-1Z" fill="url(#paint0_linear_911_4515)" mask="url(#path-1-inside-1_911_4515)"/>
            <path d="M310 1H1310V-1H310V1ZM281 43V30H279V43H281ZM30 74H250V72H30V74ZM1 488V103H-1V488H1ZM1310 517H30V519H1310V517ZM1339 73V488H1341V73H1339ZM1339 30V73H1341V30H1339ZM1310 519C1327.12 519 1341 505.121 1341 488H1339C1339 504.016 1326.02 517 1310 517V519ZM-1 488C-1 505.121 12.8791 519 30 519V517C13.9837 517 1 504.016 1 488H-1ZM30 72C12.8792 72 -1 85.8792 -1 103H1C1 86.9837 13.9837 74 30 74V72ZM279 43C279 59.0163 266.016 72 250 72V74C267.121 74 281 60.1208 281 43H279ZM1310 1C1326.02 1 1339 13.9837 1339 30H1341C1341 12.8792 1327.12 -1 1310 -1V1ZM310 -1C292.879 -1 279 12.8792 279 30H281C281 13.9837 293.984 1 310 1V-1Z" fill="url(#paint1_linear_911_4515)" mask="url(#path-1-inside-1_911_4515)"/>
    </symbol>
</svg>
