<svg width="20" height="21" viewBox="0 0 20 21" fill="none" xmlns="http://www.w3.org/2000/svg">
    <symbol id='basket' viewBox="0 0 20 21"> 
        <path d="M19.0909 4.3473H14.5455V1.62003C14.5455 1.37892 14.4497 1.14769 14.2792 0.977204C14.1087 0.806716 13.8775 0.710938 13.6364 0.710938H6.36364C6.12253 0.710938 5.8913 0.806716 5.72081 0.977204C5.55032 1.14769 5.45455 1.37892 5.45455 1.62003V4.3473H0.909091C0.667985 4.3473 0.436754 4.44308 0.266267 4.61357C0.0957789 4.78406 0 5.01529 0 5.25639C0 5.4975 0.0957789 5.72873 0.266267 5.89922C0.436754 6.0697 0.667985 6.16548 0.909091 6.16548H1.92455L3.64364 19.9146C3.67111 20.1344 3.7779 20.3366 3.94396 20.4833C4.11002 20.6299 4.32392 20.7109 4.54545 20.7109H15.4545C15.6761 20.7109 15.89 20.6299 16.056 20.4833C16.2221 20.3366 16.3289 20.1344 16.3564 19.9146L18.0755 6.16548H19.0909C19.332 6.16548 19.5632 6.0697 19.7337 5.89922C19.9042 5.72873 20 5.4975 20 5.25639C20 5.01529 19.9042 4.78406 19.7337 4.61357C19.5632 4.44308 19.332 4.3473 19.0909 4.3473ZM7.27273 2.52912H12.7273V4.3473H7.27273V2.52912ZM14.6518 18.8928H5.34818L3.75727 6.16548H16.2427L14.6518 18.8928Z"/>
    </symbol>
</svg> 