<svg fill="none" xmlns="http://www.w3.org/2000/svg">
    <symbol viewBox="0 0 25 25" id="icon-vk">
        <path d="M20.516 17.837H18.6996C18.0119 17.837 17.7993 17.2902 16.564 16.0381C15.4878 14.9962 15.0118 14.8561 14.7476 14.8561C14.3766 14.8561 14.2708 14.962 14.2708 15.4738V17.1143C14.2708 17.5561 14.1299 17.8203 12.9654 17.8203C10.6163 17.6628 8.5974 16.3816 7.42538 14.5144L7.40787 14.4852C6.04747 12.7955 5.04466 10.7591 4.54868 8.53173L4.53034 8.4342C4.53034 8.16995 4.63621 7.92238 5.14803 7.92238H6.96441C7.42288 7.92238 7.5996 8.13411 7.77715 8.62759C8.67575 11.2217 10.1762 13.4974 10.7939 13.4974C11.0231 13.4974 11.129 13.3915 11.129 12.8097V10.1264C11.0581 8.891 10.4054 8.78597 10.4054 8.345C10.4129 8.1091 10.6063 7.92071 10.8431 7.92071C10.8506 7.92071 10.8572 7.92071 10.8647 7.92154H10.8639H13.7223C14.1107 7.92154 14.2516 8.13327 14.2516 8.59174V12.2095C14.2516 12.5971 14.4283 12.7388 14.5342 12.7388C14.7634 12.7388 14.9585 12.5971 15.3811 12.1745C16.2597 11.1017 17.0108 9.87463 17.5834 8.55173L17.6218 8.4517C17.7426 8.14911 18.0327 7.93905 18.372 7.93905C18.3878 7.93905 18.4028 7.93988 18.4187 7.94071H18.4162H20.2326C20.7794 7.94071 20.9036 8.22163 20.7794 8.61092C20.0508 10.2156 19.2323 11.5943 18.2836 12.8714L18.327 12.8097C18.1336 13.1273 18.0627 13.2681 18.327 13.6224C18.5204 13.8867 19.1564 14.4335 19.5799 14.9278C20.1925 15.5338 20.706 16.239 21.0936 17.0176L21.1145 17.0635C21.2912 17.5736 21.0261 17.8387 20.5143 17.8387L20.516 17.837ZM16.6707 0H8.99585C1.99125 0 0.333252 1.658 0.333252 8.6626V16.3374C0.333252 23.342 1.99125 25 8.99585 25H16.6707C23.6753 25 25.3333 23.342 25.3333 16.3374V8.6626C25.3333 1.658 23.6569 0 16.6707 0Z"/>
    </symbol>

    <symbol viewBox="0 0 25 25" id="icon-telegram">
        <path d="M12.8333 0C5.95825 0 0.333252 5.625 0.333252 12.5C0.333252 19.375 5.95825 25 12.8333 25C19.7083 25 25.3333 19.375 25.3333 12.5C25.3333 5.625 19.7083 0 12.8333 0ZM18.9583 7.625L16.8333 17.875C16.7083 18.625 16.2083 18.75 15.7083 18.375L12.4583 15.875C11.7083 16.625 10.9583 17.25 10.8333 17.5C10.5833 17.625 10.4583 17.875 10.2083 17.875C9.83325 17.875 9.83325 17.625 9.70825 17.375L8.58325 13.625L5.20825 12.5C4.45825 12.25 4.45825 11.75 5.33325 11.375L18.0833 6.5C18.5833 6.375 19.2083 6.625 18.9583 7.625ZM15.9583 8.75L8.83325 13.25L9.95825 17L10.2083 14.5L16.3333 9C16.7083 8.625 16.4583 8.625 15.9583 8.75Z"/>
    </symbol>
</svg>
