<svg width="22" height="20" viewBox="0 0 22 20" fill="none" xmlns="http://www.w3.org/2000/svg">
<g id="&#208;&#147;&#208;&#155;&#208;&#176;&#208;&#178;&#208;&#189;&#208;&#176;&#209;&#143;">
<path d="M18.6027 10.3008C18.1011 10.3008 17.6768 10.7416 17.6768 11.2626V18.0761H13.3168V12.2646C13.3168 11.7436 12.8924 11.3028 12.3908 11.3028H9.53563C9.03406 11.3028 8.60964 11.7436 8.60964 12.2646V18.0761H4.24972V11.2626C4.24972 10.7416 3.82529 10.3008 3.32371 10.3008C2.82212 10.3008 2.39771 10.7416 2.39771 11.2626V19.038C2.39771 19.559 2.82212 19.9999 3.32371 19.9999H9.53563C10.0372 19.9999 10.4617 19.559 10.4617 19.038V13.1865H11.4648V18.9979C11.4648 19.5189 11.8892 19.9599 12.3908 19.9599H18.6027C19.1044 19.9599 19.5287 19.5189 19.5287 18.9979V11.2225C19.5287 10.7015 19.1044 10.3008 18.6027 10.3008Z" fill="white"/>
<path d="M21.6142 9.17812L11.621 0.240475C11.2738 -0.0801583 10.7723 -0.0801583 10.425 0.240475L0.316141 9.17812C0.123224 9.33844 0.00747848 9.57891 0.00747848 9.81939C-0.0311049 10.0599 0.0846359 10.3404 0.238969 10.5007C0.431886 10.7011 0.663393 10.8214 0.933477 10.8214C1.16498 10.8214 1.3579 10.7413 1.55082 10.5808L11.0423 2.16427L20.4567 10.5808C20.8426 10.9416 21.4213 10.8615 21.7685 10.4606C21.9228 10.2602 22 10.0198 22 9.77931C21.8843 9.57891 21.8071 9.37852 21.6142 9.17812Z" fill="white"/>
</g>
</svg>
