<svg width="23" height="20" viewBox="0 0 23 20" fill="none" xmlns="http://www.w3.org/2000/svg">
<g id="&#208;&#154;&#208;&#176;&#209;&#130;&#208;&#176;&#208;&#187;&#208;&#190;&#208;&#179;">
<path d="M14.7213 15.1781C13.8711 15.1781 12.9821 15.0279 12.1318 14.765C10.1993 14.0893 8.61465 12.7 7.7257 10.8979C6.79811 9.05813 6.68215 6.99318 7.37786 5.07837C8.0349 3.16356 9.46495 1.66175 11.3201 0.760668C13.214 -0.102876 15.3011 -0.253057 17.2723 0.422757C19.2433 1.09857 20.828 2.4502 21.717 4.28992C22.6059 6.12964 22.7605 8.15708 22.0648 10.0719C21.3691 11.9867 19.9777 13.526 18.0839 14.3896C17.0403 14.9152 15.8808 15.1781 14.7213 15.1781ZM14.7213 2.07475C13.9097 2.07475 13.0594 2.26248 12.2478 2.63793C10.895 3.2762 9.85145 4.40256 9.349 5.79173C8.84655 7.18091 8.92385 8.68272 9.5809 9.99675C10.9337 12.7376 14.3349 13.864 17.1562 12.5498C18.5091 11.9116 19.5526 10.7853 20.055 9.39605C20.5574 8.00691 20.4802 6.50509 19.8232 5.19101C18.8569 3.23865 16.8471 2.07475 14.7213 2.07475Z" fill="white"/>
<path d="M19.4395 19.4181L17.1592 14.8376C16.8886 14.3121 17.1205 13.7113 17.6616 13.4485C18.2027 13.1857 18.8212 13.4109 19.0917 13.9366L21.372 18.5171C21.6425 19.0427 21.4107 19.6435 20.8695 19.9062C20.3284 20.1315 19.6714 19.9438 19.4395 19.4181Z" fill="white"/>
<path d="M3.70795 8.83179H1.58219C0.963799 8.83179 0.5 8.34371 0.5 7.78053C0.5 7.21735 0.963799 6.72926 1.58219 6.72926H3.70795C4.28769 6.72926 4.79014 7.17981 4.79014 7.78053C4.75149 8.34371 4.28769 8.83179 3.70795 8.83179Z" fill="white"/>
<path d="M5.40854 13.7913H1.58219C1.00245 13.7913 0.5 13.3408 0.5 12.7401C0.5 12.1769 0.963799 11.6888 1.58219 11.6888H5.40854C5.98829 11.6888 6.49074 12.1394 6.49074 12.7401C6.45209 13.3032 5.98829 13.7913 5.40854 13.7913Z" fill="white"/>
<path d="M9.66003 18.3321H1.58219C1.00245 18.3321 0.5 17.8816 0.5 17.2809C0.5 16.7177 0.963799 16.2296 1.58219 16.2296H9.66003C10.2398 16.2296 10.7422 16.6802 10.7422 17.2809C10.7036 17.8816 10.2398 18.3321 9.66003 18.3321Z" fill="white"/>
</g>
</svg>
